# xmcd
#
# Track frame offsets:
#	150
#	15935
#	30572
#	52215
#	69942
#	87325
#	104870
#	120482
#	134802
#	152555
#	169050
# Disc length: 2467 seconds
# Revision: 1
# Processed by: cddbd v1.5.2PL0 Copyright (c) Steve Scherf et al.
#
# Submitted via: libkcddb 0.21
#
DISCID=9109a10b
DTITLE=John Dickson - Maranooka
DYEAR=1993
DGENRE=Christian Country Rock
TTITLE0=Suspicions
TTITLE1=Lone Hand
TTITLE2=Maranooka
TTITLE3=Never Die
TTITLE4=Reaching
TTITLE5=Under The Covers of Time
TTITLE6=Bird In A Cage
TTITLE7=Beating Of The Drum
TTITLE8=Unseen Hands
TTITLE9=Remember Me
TTITLE10=Invincible
EXTD=
EXTT0=
EXTT1=
EXTT2=
EXTT3=
EXTT4=
EXTT5=
EXTT6=
EXTT7=
EXTT8=
EXTT9=
EXTT10=
PLAYORDER=
